<?xml version="1.0" standalone="no"?><!DOCTYPE svg PUBLIC "-//W3C//DTD SVG 1.1//EN" "http://www.w3.org/Graphics/SVG/1.1/DTD/svg11.dtd"><svg t="1521770357599" class="icon" style="" viewBox="0 0 1024 1024" version="1.1" xmlns="http://www.w3.org/2000/svg" p-id="3863" xmlns:xlink="http://www.w3.org/1999/xlink" width="48" height="48"><defs><style type="text/css"></style></defs><path d="M667.78112 686.97088 558.42816 686.97088 558.42816 577.61792c0-1.15712-0.23552-2.24256-0.34816-3.3792 110.65344-18.81088 195.19488-115.31264 195.19488-231.23968 0-129.37216-105.24672-234.61888-234.61888-234.61888-129.37216 0-234.61888 105.24672-234.61888 234.61888 0 115.92704 84.54144 212.4288 195.19488 231.23968-0.1024 1.13664-0.34816 2.22208-0.34816 3.3792l0 109.35296L369.54112 686.97088c-21.9648 0-39.76192 17.80736-39.76192 39.76192s17.79712 39.76192 39.76192 39.76192l109.35296 0 0 109.3632c0 21.9648 17.80736 39.76192 39.76192 39.76192 21.9648 0 39.77216-17.80736 39.77216-39.76192l0-109.3632 109.35296 0c21.9648 0 39.76192-17.80736 39.76192-39.76192S689.74592 686.97088 667.78112 686.97088zM363.5712 342.99904c0-85.51424 69.57056-155.09504 155.0848-155.09504 85.51424 0 155.09504 69.57056 155.09504 155.09504S604.17024 498.08384 518.656 498.08384C433.152 498.08384 363.5712 428.51328 363.5712 342.99904z" p-id="3864" fill="#FF4594"></path></svg>