<?xml version="1.0" standalone="no"?><!DOCTYPE svg PUBLIC "-//W3C//DTD SVG 1.1//EN" "http://www.w3.org/Graphics/SVG/1.1/DTD/svg11.dtd"><svg t="1521770450530" class="icon" style="" viewBox="0 0 1024 1024" version="1.1" xmlns="http://www.w3.org/2000/svg" p-id="4090" xmlns:xlink="http://www.w3.org/1999/xlink" width="48" height="48"><defs><style type="text/css"></style></defs><path d="M806.44096 178.92352 649.0112 178.92352c-15.37024 0-27.83232 12.46208-27.83232 27.83232s12.46208 27.83232 27.83232 27.83232l73.07264 0-175.616 175.616c-35.60448-21.79072-77.42464-34.37568-122.13248-34.37568-129.37216 0-234.61888 105.24672-234.61888 234.61888 0 129.37216 105.24672 234.61888 234.61888 234.61888 129.37216 0 234.61888-105.24672 234.61888-234.61888 0-55.95136-19.712-107.35616-52.51072-147.72224l172.16512-172.16512 0 83.29216c0 15.37024 12.46208 27.83232 27.83232 27.83232s27.83232-12.46208 27.83232-27.83232L834.27328 206.75584C834.27328 191.3856 821.8112 178.92352 806.44096 178.92352zM424.33536 765.5424c-85.51424 0-155.09504-69.57056-155.09504-155.09504 0-85.51424 69.57056-155.0848 155.09504-155.0848 85.51424 0 155.0848 69.57056 155.0848 155.0848C579.42016 695.97184 509.8496 765.5424 424.33536 765.5424z" p-id="4091" fill="#57ACFE"></path></svg>