<?xml version="1.0" standalone="no"?><!DOCTYPE svg PUBLIC "-//W3C//DTD SVG 1.1//EN" "http://www.w3.org/Graphics/SVG/1.1/DTD/svg11.dtd"><svg t="1522120123567" class="icon" style="" viewBox="0 0 1024 1024" version="1.1" xmlns="http://www.w3.org/2000/svg" p-id="1991" xmlns:xlink="http://www.w3.org/1999/xlink" width="48" height="48"><defs><style type="text/css"></style></defs><path d="M768 0H256a96 96 0 0 0-96 96v832a96 96 0 0 0 96 96h512a96 96 0 0 0 96-96V96a96 96 0 0 0-96-96z m32 928a32 32 0 0 1-32 32H256a32 32 0 0 1-32-32v-64h576z m0-96H224V192h576z m0-672H224V96a32 32 0 0 1 32-32h512a32 32 0 0 1 32 32z" fill="#999999" p-id="1992"></path><path d="M576 112a16 16 0 0 1-16 16h-96a16 16 0 0 1-16-16 16 16 0 0 1 16-16h96a16 16 0 0 1 16 16zM544 912a16 16 0 0 1-16 16h-32a16 16 0 0 1-16-16 16 16 0 0 1 16-16h32a16 16 0 0 1 16 16z" fill="#999999" p-id="1993"></path></svg>