<?xml version="1.0" standalone="no"?><!DOCTYPE svg PUBLIC "-//W3C//DTD SVG 1.1//EN" "http://www.w3.org/Graphics/SVG/1.1/DTD/svg11.dtd"><svg t="1521192409258" class="icon" style="" viewBox="0 0 1024 1024" version="1.1" xmlns="http://www.w3.org/2000/svg" p-id="3402" xmlns:xlink="http://www.w3.org/1999/xlink" width="48" height="48"><defs><style type="text/css"></style></defs><path d="M522.24 540.16c-115.2 0-207.36-92.16-207.36-207.36s92.16-207.36 207.36-207.36 207.36 92.16 207.36 207.36-92.16 207.36-207.36 207.36z m0-363.52c-87.04 0-156.16 69.12-156.16 156.16s69.12 156.16 156.16 156.16 156.16-69.12 156.16-156.16-69.12-156.16-156.16-156.16z" fill="#72D29C" p-id="3403"></path><path d="M217.6 898.56H174.08v-25.6c0-192 156.16-348.16 348.16-348.16 12.8 0 25.6 0 38.4 2.56l-5.12 51.2c-10.24 0-23.04-2.56-33.28-2.56-163.84 0-296.96 133.12-296.96 296.96h-7.68v25.6zM870.4 898.56h-40.96v-25.6H819.2c0-99.84-48.64-192-133.12-248.32l28.16-43.52C811.52 645.12 870.4 755.2 870.4 870.4v28.16z" fill="#72D29C" p-id="3404"></path></svg>