<?xml version="1.0" standalone="no"?><!DOCTYPE svg PUBLIC "-//W3C//DTD SVG 1.1//EN" "http://www.w3.org/Graphics/SVG/1.1/DTD/svg11.dtd"><svg t="1521192530910" class="icon" style="" viewBox="0 0 1024 1024" version="1.1" xmlns="http://www.w3.org/2000/svg" p-id="4211" xmlns:xlink="http://www.w3.org/1999/xlink" width="48" height="48"><defs><style type="text/css"></style></defs><path d="M900.89 345.33h-83.33v-27.77C817.56 149.07 680.48 12 512 12S206.44 149.07 206.44 317.56v27.78h-83.33A111.22 111.22 0 0 0 12 456.44v444.45A111.22 111.22 0 0 0 123.11 1012h777.78A111.22 111.22 0 0 0 1012 900.89V456.44a111.22 111.22 0 0 0-111.11-111.11zM512 67.56c137.86 0 250 112.14 250 250v27.78H262v-27.78c0-137.86 112.14-250 250-250z m444.44 833.33a55.63 55.63 0 0 1-55.56 55.56H123.11a55.63 55.63 0 0 1-55.56-55.56V456.44a55.63 55.63 0 0 1 55.56-55.56h777.78a55.63 55.63 0 0 1 55.56 55.56z" p-id="4212" fill="#72D29C"></path><path d="M512 567.56A55.39 55.39 0 0 0 484.22 671v63.26a27.78 27.78 0 1 0 55.56 0V671A55.39 55.39 0 0 0 512 567.56z" p-id="4213" fill="#72D29C"></path></svg>