<?xml version="1.0" standalone="no"?><!DOCTYPE svg PUBLIC "-//W3C//DTD SVG 1.1//EN" "http://www.w3.org/Graphics/SVG/1.1/DTD/svg11.dtd"><svg t="1524455411415" class="icon" style="" viewBox="0 0 1024 1024" version="1.1" xmlns="http://www.w3.org/2000/svg" p-id="1660" xmlns:xlink="http://www.w3.org/1999/xlink" width="128" height="128"><defs><style type="text/css"></style></defs><path d="M511.3 767.9c-4.1 0-8.2-1.4-11.6-4.1-2.4-2-60.4-49.3-119.3-112.2-81.3-86.7-122.5-158.2-122.5-212.4 0-84.6 66.9-153.4 149.2-153.4 23.5 0 46.9 5.8 67.7 16.7 13.4 7 25.8 16.2 36.6 27.1 10.8-10.9 23.2-20.1 36.6-27.1 20.8-10.9 44.2-16.7 67.7-16.7 82.3 0 149.2 68.8 149.2 153.4 0 54.2-41.2 125.6-122.5 212.4-58.9 62.9-116.9 110.2-119.3 112.2-3.6 2.8-7.7 4.1-11.8 4.1zM407.1 322.6c-62 0-112.5 52.3-112.5 116.6 0 43.9 38.8 108.5 112.3 186.9 42 44.9 84.5 82.4 104.4 99.4 19.9-17 62.4-54.5 104.4-99.4C689.2 547.8 728 483.2 728 439.3c0-64.3-50.4-116.6-112.5-116.6-35.4 0-68 16.8-89.4 46.1-3.5 4.7-9 7.5-14.8 7.5-5.9 0-11.4-2.8-14.8-7.5-21.4-29.4-54-46.2-89.4-46.2z" fill="" p-id="1661"></path><path d="M511.3 977.9c-62.9 0-123.9-12.3-181.3-36.6-55.5-23.5-105.3-57-148-99.8-42.8-42.8-76.3-92.6-99.8-148-24.3-57.4-36.6-118.4-36.6-181.3s12.3-123.9 36.6-181.3c23.5-55.5 57-105.3 99.8-148 42.8-42.8 92.6-76.3 148-99.8 57.4-24.3 118.4-36.6 181.3-36.6 62.9 0 123.9 12.3 181.3 36.6 55.5 23.5 105.3 57 148 99.8 42.8 42.8 76.3 92.6 99.8 148 24.3 57.4 36.6 118.4 36.6 181.3s-12.3 123.9-36.6 181.3c-23.5 55.5-57 105.3-99.8 148-42.8 42.8-92.6 76.3-148 99.8-57.4 24.3-118.4 36.6-181.3 36.6z m0-894.6c-236.5 0-429 192.4-429 429 0 236.5 192.4 429 429 429 236.5 0 429-192.4 429-429s-192.4-429-429-429z" fill="" p-id="1662"></path></svg>