<?xml version="1.0" standalone="no"?><!DOCTYPE svg PUBLIC "-//W3C//DTD SVG 1.1//EN" "http://www.w3.org/Graphics/SVG/1.1/DTD/svg11.dtd"><svg t="1521776058105" class="icon" style="" viewBox="0 0 1024 1024" version="1.1" xmlns="http://www.w3.org/2000/svg" p-id="4780" xmlns:xlink="http://www.w3.org/1999/xlink" width="48" height="48"><defs><style type="text/css"></style></defs><path d="M816 726.4l137.6 137.6c12.8 12.8 12.8 32 0 44.8l-44.8 44.8c-12.8 12.8-32 12.8-44.8 0l-134.4-134.4c-70.4 51.2-153.6 80-246.4 80-230.4 0-416-185.6-416-416s185.6-416 416-416 416 185.6 416 416c-3.2 89.6-32 172.8-83.2 243.2z m-336 105.6c195.2 0 352-156.8 352-352s-156.8-352-352-352-352 156.8-352 352 156.8 352 352 352z" p-id="4781" fill="#333333"></path></svg>