<?xml version="1.0" standalone="no"?><!DOCTYPE svg PUBLIC "-//W3C//DTD SVG 1.1//EN" "http://www.w3.org/Graphics/SVG/1.1/DTD/svg11.dtd"><svg t="1521770055798" class="icon" style="" viewBox="0 0 1024 1024" version="1.1" xmlns="http://www.w3.org/2000/svg" p-id="2043" xmlns:xlink="http://www.w3.org/1999/xlink" width="48" height="48"><defs><style type="text/css"></style></defs><path d="M940.8 493.2c-10.4 0-18.8 8.4-18.8 18.8 0 226.1-183.9 410-410 410S102 738.1 102 512s183.9-410 410-410c158.5 0 304.3 92.8 371.5 236.4 3.8 8.1 12.7 12.4 21.3 10.3 8.7-2 14.7-9.9 14.5-18.8l-4.1-151.8c-0.3-10.4-8.9-19-19.3-18.3-10.4 0.3-18.6 8.9-18.3 19.3l2.1 77.8C797 138.1 659.5 64.4 512 64.4 265.2 64.4 64.4 265.2 64.4 512S265.2 959.6 512 959.6 959.6 758.8 959.6 512c0-10.4-8.5-18.8-18.8-18.8z" fill="#666666" p-id="2044"></path><path d="M512 210.9c-10.4 0-18.8 8.4-18.8 18.8V512c0 10.4 8.4 18.8 18.8 18.8h282.3c10.4 0 18.8-8.4 18.8-18.8s-8.4-18.8-18.8-18.8H530.8V229.7c0-10.4-8.4-18.8-18.8-18.8z" fill="#666666" p-id="2045"></path></svg>