<?xml version="1.0" standalone="no"?><!DOCTYPE svg PUBLIC "-//W3C//DTD SVG 1.1//EN" "http://www.w3.org/Graphics/SVG/1.1/DTD/svg11.dtd"><svg t="1524455389953" class="icon" style="" viewBox="0 0 1024 1024" version="1.1" xmlns="http://www.w3.org/2000/svg" p-id="1531" xmlns:xlink="http://www.w3.org/1999/xlink" width="128" height="128"><defs><style type="text/css"></style></defs><path d="M482.221388 977.699062c-220.361726-11.911445-401.338837-179.82439-433.422889-402.299437-4.610882-31.507692-4.610882-95.099437 0-126.79925 14.793246-102.97636 59.557223-193.272795 131.410131-265.317823 37.847655-38.039775 75.69531-65.128705 124.301689-89.143715 44.571857-21.901689 82.227392-34.197373 130.641651-42.458537 33.236773-5.763602 96.828518-7.108443 131.602251-2.881801 107.010882 13.064165 200.573358 58.980863 276.652908 135.444653 69.931707 70.315947 114.311445 159.651782 130.065291 261.475422 4.803002 30.739212 4.610882 103.3606-0.19212 134.099812-26.32045 167.912946-133.907692 304.126079-289.332833 365.988743-43.611257 17.482927-94.138837 29.010131-135.252533 31.123453-10.758724 0.57636-24.207129 1.344841-29.970731 1.72908-5.763602 0.19212-22.285929-0.19212-36.502815-0.9606z m83.956473-41.113696c46.877298-6.147842 87.798874-18.635647 132.178612-40.345216 55.138462-26.896811 101.63152-63.207505 139.671294-108.547842 110.469043-131.602251 132.178612-312.195122 56.099062-464.738462-22.478049-44.956098-46.493058-78.384991-82.035272-113.927204-119.498687-119.114447-297.978236-156.577861-454.940337-95.483678-96.060038 37.463415-177.134709 110.084803-225.356849 201.918199-31.699812 60.517824-47.837899 126.607129-47.837898 196.538837 0 68.202627 13.448405 126.99137 43.611257 188.277674 63.015385 128.33621 185.203752 216.519325 327.756848 236.307692 25.74409 3.458161 83.187992 3.458161 110.853283 0z" fill="" p-id="1532"></path><path d="M491.443152 758.490056c-23.630769-19.404128-66.281426-59.172983-93.754597-87.222514-68.202627-69.739587-111.237523-129.296811-130.06529-179.44015-2.497561-6.916323-5.955722-14.601126-7.684803-17.098687-2.497561-3.842402-2.881801-9.798124-2.113321-35.542213 0.76848-28.625891 1.344841-32.276173 7.108442-49.18274 7.876923-23.246529 18.443527-40.921576 34.389494-58.020262 53.601501-57.059662 141.016135-63.015385 201.533959-13.640526l10.182364 8.261164 12.679925-9.606004c28.625891-22.093809 56.483302-31.507692 92.025516-31.507692 27.281051 0 45.148218 4.226642 68.010506 16.138086 29.394371 15.369606 50.52758 37.271295 65.512946 68.202626 12.487805 25.93621 15.945966 40.729456 15.945966 68.202627 0 18.251407-0.9606 25.16773-5.187242 39.384615-13.256285 44.763977-49.566979 101.24728-103.552721 160.612383-35.734334 39.192495-108.163602 108.547842-130.833771 125.070169-11.911445 8.645403-19.404128 7.492683-34.197373-4.610882z" fill="#FF0000" p-id="1533"></path></svg>